<?xml version="1.0" encoding="UTF-8"?>
<svg width="6960px" height="1260px" viewBox="0 0 6960 1260" version="1.1" xmlns="http://www.w3.org/2000/svg" xmlns:xlink="http://www.w3.org/1999/xlink">
    <!-- Generator: Sketch 54.1 (76490) - https://sketchapp.com -->
    <title>Group 4</title>
    <desc>Created with Sketch.</desc>
    <defs>
        <linearGradient x1="50%" y1="0%" x2="50%" y2="127.737709%" id="linearGradient-1">
            <stop stop-color="#B5B5B5" stop-opacity="0.39529611" offset="0%"></stop>
            <stop stop-color="#8E8E8E" stop-opacity="0.39529611" offset="18.5233353%"></stop>
            <stop stop-color="#343434" stop-opacity="0.39529611" offset="43.8403339%"></stop>
            <stop stop-color="#010101" stop-opacity="0.39529611" offset="100%"></stop>
        </linearGradient>
        <linearGradient x1="49.2423225%" y1="6.25565223%" x2="49.2403659%" y2="100%" id="linearGradient-2">
            <stop stop-color="#2E2E2E" offset="0%"></stop>
            <stop stop-color="#880C0C" offset="57.3294975%"></stop>
            <stop stop-color="#980202" offset="100%"></stop>
        </linearGradient>
    </defs>
    <g id="Page-1" stroke="none" stroke-width="1" fill="none" fill-rule="evenodd">
        <g id="Group-4">
            <rect id="hyperloop-buis" fill="url(#linearGradient-1)" x="0" y="340" width="6960" height="580"></rect>
            <path d="M574,928 L574,1201.06031 C583.860721,1201.66617 592.935506,1206.80487 598.520633,1215.04293 L626.883175,1256.87768 C627.503014,1257.79194 627.264336,1259.03558 626.350075,1259.65542 C626.018865,1259.87997 625.627911,1260 625.227758,1260 L498.772242,1260 C497.667672,1260 496.772242,1259.10457 496.772242,1258 C496.772242,1257.59985 496.892276,1257.20889 497.116825,1256.87768 L525.479367,1215.04293 C531.064494,1206.80487 540.139279,1201.66617 550,1201.06031 L550,928 L548,928 C543.581722,928 540,924.418278 540,920 L540,340 C540,335.581722 543.581722,332 548,332 L576,332 C580.418278,332 584,335.581722 584,340 L584,920 C584,924.418278 580.418278,928 576,928 L574,928 Z" id="hyperloop-structure-1" fill="url(#linearGradient-2)"></path>
            <path d="M2508,928 L2508,1201.06031 C2517.86072,1201.66617 2526.93551,1206.80487 2532.52063,1215.04293 L2560.88318,1256.87768 C2561.50301,1257.79194 2561.26434,1259.03558 2560.35007,1259.65542 C2560.01886,1259.87997 2559.62791,1260 2559.22776,1260 L2432.77224,1260 C2431.66767,1260 2430.77224,1259.10457 2430.77224,1258 C2430.77224,1257.59985 2430.89228,1257.20889 2431.11682,1256.87768 L2459.47937,1215.04293 C2465.06449,1206.80487 2474.13928,1201.66617 2484,1201.06031 L2484,928 L2482,928 C2477.58172,928 2474,924.418278 2474,920 L2474,340 C2474,335.581722 2477.58172,332 2482,332 L2510,332 C2514.41828,332 2518,335.581722 2518,340 L2518,920 C2518,924.418278 2514.41828,928 2510,928 L2508,928 Z" id="hyperloop-structure-2" fill="url(#linearGradient-2)"></path>
            <path d="M4442,928 L4442,1201.06031 C4451.86072,1201.66617 4460.93551,1206.80487 4466.52063,1215.04293 L4494.88318,1256.87768 C4495.50301,1257.79194 4495.26434,1259.03558 4494.35007,1259.65542 C4494.01886,1259.87997 4493.62791,1260 4493.22776,1260 L4366.77224,1260 C4365.66767,1260 4364.77224,1259.10457 4364.77224,1258 C4364.77224,1257.59985 4364.89228,1257.20889 4365.11682,1256.87768 L4393.47937,1215.04293 C4399.06449,1206.80487 4408.13928,1201.66617 4418,1201.06031 L4418,928 L4416,928 C4411.58172,928 4408,924.418278 4408,920 L4408,340 C4408,335.581722 4411.58172,332 4416,332 L4444,332 C4448.41828,332 4452,335.581722 4452,340 L4452,920 C4452,924.418278 4448.41828,928 4444,928 L4442,928 Z" id="hyperloop-structure-3" fill="url(#linearGradient-2)"></path>
            <path d="M6376,928 L6376,1201.06031 C6385.86072,1201.66617 6394.93551,1206.80487 6400.52063,1215.04293 L6428.88318,1256.87768 C6429.50301,1257.79194 6429.26434,1259.03558 6428.35007,1259.65542 C6428.01886,1259.87997 6427.62791,1260 6427.22776,1260 L6300.77224,1260 C6299.66767,1260 6298.77224,1259.10457 6298.77224,1258 C6298.77224,1257.59985 6298.89228,1257.20889 6299.11682,1256.87768 L6327.47937,1215.04293 C6333.06449,1206.80487 6342.13928,1201.66617 6352,1201.06031 L6352,928 L6350,928 C6345.58172,928 6342,924.418278 6342,920 L6342,340 C6342,335.581722 6345.58172,332 6350,332 L6378,332 C6382.41828,332 6386,335.581722 6386,340 L6386,920 C6386,924.418278 6382.41828,928 6378,928 L6376,928 Z" id="hyperloop-structure-4" fill="url(#linearGradient-2)"></path>
            <rect id="Rectangle" fill="#131415" x="4354" y="0" width="230" height="2"></rect>
        </g>
    </g>
</svg>