<?xml version="1.0" encoding="UTF-8"?>
<svg width="2418px" height="568px" viewBox="0 0 2418 568" version="1.1" xmlns="http://www.w3.org/2000/svg" xmlns:xlink="http://www.w3.org/1999/xlink">
    <!-- Generator: Sketch 54.1 (76490) - https://sketchapp.com -->
    <title>hyperloop</title>
    <desc>Created with Sketch.</desc>
    <defs>
        <linearGradient x1="50%" y1="0%" x2="50%" y2="90.8543186%" id="linearGradient-1">
            <stop stop-color="#CE6C6C" offset="0%"></stop>
            <stop stop-color="#961717" offset="13.884061%"></stop>
            <stop stop-color="#CF3939" offset="36.5877426%"></stop>
            <stop stop-color="#A12222" offset="69.7162009%"></stop>
            <stop stop-color="#651F1F" offset="100%"></stop>
        </linearGradient>
        <linearGradient x1="39.0850461%" y1="49.6117141%" x2="11.126917%" y2="47.9858984%" id="linearGradient-2">
            <stop stop-color="#9B7676" stop-opacity="0" offset="0%"></stop>
            <stop stop-color="#9E4747" stop-opacity="0.5" offset="61.3752842%"></stop>
            <stop stop-color="#6B2D2D" stop-opacity="0.783735795" offset="100%"></stop>
        </linearGradient>
        <path d="M549.5,8.45417486e-13 C903.5,4.41396919e-13 2039,2.42929338e-13 2317,0 C2595,-2.27817765e-13 2221,513 2078,513 C1935,513 622.5,513 182,513 C-258.5,513 195.5,1.21918101e-12 549.5,8.45417486e-13 Z" id="path-3"></path>
        <linearGradient x1="50%" y1="68.8172495%" x2="50%" y2="0%" id="linearGradient-5">
            <stop stop-color="#AA3636" offset="0%"></stop>
            <stop stop-color="#4C1212" offset="100%"></stop>
        </linearGradient>
        <filter x="-7.1%" y="-51.4%" width="114.1%" height="202.7%" filterUnits="objectBoundingBox" id="filter-6">
            <feGaussianBlur stdDeviation="43" in="SourceGraphic"></feGaussianBlur>
        </filter>
        <linearGradient x1="89.9509508%" y1="100%" x2="13.567348%" y2="100%" id="linearGradient-7">
            <stop stop-color="#000000" offset="0%"></stop>
            <stop stop-color="#880C0C" offset="57.3294975%"></stop>
            <stop stop-color="#000000" offset="100%"></stop>
        </linearGradient>
        <linearGradient x1="89.9509508%" y1="100%" x2="13.567348%" y2="100%" id="linearGradient-8">
            <stop stop-color="#000000" offset="0%"></stop>
            <stop stop-color="#880C0C" offset="57.3294975%"></stop>
            <stop stop-color="#000000" offset="100%"></stop>
        </linearGradient>
        <linearGradient x1="72.9292743%" y1="100%" x2="30.6015299%" y2="100%" id="linearGradient-9">
            <stop stop-color="#000000" offset="0%"></stop>
            <stop stop-color="#880C0C" offset="70.8562581%"></stop>
            <stop stop-color="#000000" offset="100%"></stop>
        </linearGradient>
        <linearGradient x1="46.8349074%" y1="100%" x2="46.8349074%" y2="0%" id="linearGradient-10">
            <stop stop-color="#591818" offset="0%"></stop>
            <stop stop-color="#502424" offset="57.3294975%"></stop>
            <stop stop-color="#000000" offset="100%"></stop>
        </linearGradient>
    </defs>
    <g id="Page-1" stroke="none" stroke-width="1" fill="none" fill-rule="evenodd">
        <g id="Group-4" transform="translate(-2824.000000, -13.000000)">
            <g id="hyperloop" transform="translate(2824.000000, 13.000000)">
                <g id="Rectangle" transform="translate(0.000000, 0.000000)">
                    <mask id="mask-4" fill="white">
                        <use xlink:href="#path-3"></use>
                    </mask>
                    <g id="Mask">
                        <use fill="url(#linearGradient-1)" xlink:href="#path-3"></use>
                        <use fill="url(#linearGradient-2)" xlink:href="#path-3"></use>
                    </g>
                    <path d="M230,433.5 C286.523086,294.701796 410.189752,217.201796 601,201 C979.420065,168.868158 2034.5,169 2057.5,278" id="Path-10" fill="url(#linearGradient-5)" opacity="0.326520647" filter="url(#filter-6)" mask="url(#mask-4)"></path>
                    <path d="M681.5,402 C668.166667,329.666667 668.166667,252.666667 681.5,171 C694.833333,89.3333333 722.5,32.3333333 764.5,-2.27373675e-13" id="Path-9" stroke="#000000" stroke-width="3" mask="url(#mask-4)"></path>
                    <path d="M1918,391 C1907,315.666667 1901.5,250.5 1901.5,195.5 C1901.5,140.5 1919.16667,75.3333333 1954.5,-2.27373675e-13" id="Path-9-Copy" stroke="#000000" stroke-width="3" mask="url(#mask-4)" transform="translate(1928.000000, 195.500000) scale(-1, 1) translate(-1928.000000, -195.500000) "></path>
                    <rect fill="url(#linearGradient-7)" mask="url(#mask-4)" x="-78" y="358" width="2375" height="9"></rect>
                    <rect id="Rectangle-Copy-4" fill="url(#linearGradient-8)" mask="url(#mask-4)" x="-12" y="380" width="2375" height="22"></rect>
                    <text id="HYPERLOOP-ELON-M" fill="url(#linearGradient-9)" mask="url(#mask-4)" font-family="Aldrich-Regular, Aldrich" font-size="56" font-weight="normal" letter-spacing="14.2222233">
                        <tspan x="150.072256" y="318">HYPERLOOP   ELON M</tspan>
                    </text>
                </g>
                <rect id="Rectangle" fill="#000000" x="348" y="513" width="142" height="55"></rect>
                <rect id="Rectangle-Copy-5" fill="#000000" x="1807" y="513" width="142" height="55"></rect>
                <path d="M268,513 L1997,513 C1997.66667,540.333333 1991,554 1977,554 C1956,554 317.5,554 288,554 C268.333333,554 261.666667,540.333333 268,513 Z" id="Rectangle" fill="url(#linearGradient-10)" transform="translate(1131.365676, 533.500000) scale(1, -1) translate(-1131.365676, -533.500000) "></path>
            </g>
        </g>
    </g>
</svg>