<?xml version="1.0" encoding="UTF-8"?>
<svg width="1185px" height="1142px" viewBox="0 0 1185 1142" version="1.1" xmlns="http://www.w3.org/2000/svg" xmlns:xlink="http://www.w3.org/1999/xlink">
    <!-- Generator: Sketch 54.1 (76490) - https://sketchapp.com -->
    <title>Group 5</title>
    <desc>Created with Sketch.</desc>
    <defs>
        <path d="M178,274 L711,781" id="path-1"></path>
        <filter x="-0.8%" y="-1.0%" width="101.6%" height="102.0%" filterUnits="objectBoundingBox" id="filter-2">
            <feGaussianBlur stdDeviation="0" in="SourceGraphic"></feGaussianBlur>
        </filter>
        <filter x="-40.8%" y="-243.8%" width="181.6%" height="587.5%" filterUnits="objectBoundingBox" id="filter-3">
            <feGaussianBlur stdDeviation="39" in="SourceGraphic"></feGaussianBlur>
        </filter>
        <filter x="-38.7%" y="-231.2%" width="177.4%" height="562.5%" filterUnits="objectBoundingBox" id="filter-4">
            <feGaussianBlur stdDeviation="37" in="SourceGraphic"></feGaussianBlur>
        </filter>
    </defs>
    <g id="Page-1" stroke="none" stroke-width="1" fill="none" fill-rule="evenodd">
        <g id="Group-5">
            <polyline id="Path-11" stroke="#FFFFFF" points="92.5 207 95.5 220.5 95.5 230 92.5 236.5 92.5 248 95.5 255.5 102 260.5 102 283.5 108 303 118.5 313 129 326 134 331.5 144 339 152 339 160.5 336 166 336 175 342 182 356.5 182 366.5 178 379.5 175 390 169 390 160.5 387 156.5 394 160.5 408.5 166 422 166 437 169 448.5 175 448.5 182 455 189.5 461 199.5 472 202.5 484 211.5 488 219 495 219 509 226 513 233 513 243 530.5 243 538.5 247.5 544.5 260.5 544.5 269.5 558.5 274 571.5 278 575.5 285 575.5 293 575.5 299 584.5 299 597 296 607.5 305 616.5 316.5 616.5 320.5 623 329 631 329 639 325.5 650.5 325.5 663 333.5 668.5 329 677.5 333.5 687 333.5 697 325.5 714 333.5 719.5 343 714 343 719.5 351 729.5 347 735.5 368 729.5 380 729.5 391.5 729.5 408.5 729.5 420.5 735.5 438.5 735.5 449 739.5 466 735.5 481 743 489 750 500.5 756.5 512.5 762.5 512.5 771 512.5 779 519.5 779 524 786 537.5 789.5 553 789.5 565 801 575.5 796.5 591.5 793 605.5 796.5 616.5 804 620.5 813 623.5 824.5 624 829.5 622.5 829.5 621 831.5 621 834.5 621.5 837.5 623.5 839 626 839 627.5 840.5 628.5 841 631.5 841 633 843 634.5 843 636 843 638 844.5 640 844.5 641 843 641 841 641 838.5 642 838 645.5 837.5 647 836.5 648.5 837 651 839.5 652.5 836.5 655.5 837 659 836 659 838 661 838 662 839.5 663.5 842 669 844.5 672 845 676 850.5 678.5 852.5 683 855 684.5 859 687.5 859 689.5 859.5 692.5 861 696 864 700 866 703 867.5 703.5 869.5 707 873.5 710.5 874.5 711.5 876.5 713 878 716 880 719 880 722.5 881.5 726.5 885.5 727 887 729 889 733 893.5 736.5 895.5 754 916 760.5 921 763.5 927.5 767 935 775 944.5 778.5 956.5 778.5 969.5 775 975 775 978 778.5 982.5 780 989.5 779 996.5 783 994.5 785 994 788.5 995.5 788.5 998.5 789 1002 793.5 1002 794.5 1007 796.5 1018 794 1024 798 1030.5 797.5 1036.5 800.5 1045.5 804 1047 807 1052 807.5 1059 809.5 1066 816 1069.5 821.5 1071 824 1077 830 1089 829.5 1094.5 831.5 1101 835.5 1105 840 1109 842.5 1109 844.5 1109.5 845 1112.5 859.5 1129 859.5 1142"></polyline>
            <polygon id="Path-12" stroke="#FFFFFF" points="407.5 797 408.5 799.5 408.5 802 408.5 803 411 803 414 803 414 804.5 416 804.5 419 808 418 812 414 812 413.5 812 411 814 407.5 817.5 405 817.5 403.5 816 400.5 815 398.5 817.5 396.5 818.5 395 817.5 392.5 817.5 392.5 816 394 814 395 812 392.5 810.5 390 810.5 388.5 809 386 809 383.5 807 383.5 803 388.5 803 388.5 802 394 800.5 397.5 799.5 401.5 799.5 403.5 799.5 405 798.5"></polygon>
            <polygon id="Path-13" stroke="#FFFFFF" points="424.5 793 424.5 795.5 425.5 795.5 427.5 795.5 428.5 798 430 798 430 800 427.5 804 430 804 433.5 806.5 438 808.5 440.5 808.5 447 808.5 450.5 807.5 453.5 806.5 455.5 805 460 805 464.5 805 467.5 804 469.5 802.5 471.5 802.5 471.5 800.5 474 799 476.5 798 476.5 795.5 475 795.5 473 795.5 471.5 794 469.5 794 469.5 797 466 797 464.5 798 462 798 460 800 457 799 453.5 799 452.5 797 450.5 797 447 795.5 445.5 794 440.5 795.5 438 794 436 793 433.5 793 431.5 792 428.5 792 427.5 790.5 425.5 790.5 424.5 792"></polygon>
            <polygon id="Path-14" stroke="#FFFFFF" points="373 800.5 371 800.5 370 801 368.5 802.5 366.5 801.5 365 801.5 364.5 800.5 363 800 361 801 359 800.5 359 799.5 357.5 799 356.5 799 356.5 797.5 358.5 797 359 797 360.5 795.5 361.5 795 362.5 794.5 363.5 794.5 365 793 365.5 791.5 366.5 792 367 793.5 367 794.5 367 796 368.5 796.5 368.5 798 369.5 798 370.5 797.5 371 798 372 799 373.5 799.5"></polygon>
            <polyline id="Path-15" stroke="#FFFFFF" points="140.5 223 188.5 219.5 212.5 213 237.5 236 260.5 258.5 266 273 271.5 297.5 286.5 321.5 305 345 305 361.5 320 370.5 330 387.5 347.5 404.5 367.5 430 377 444.5 391 467.5 397.5 478 417.5 491.5 430.5 508 444 532 464 558 488 581 506.5 597 533 626 548 644.5 552 659.5 559.5 669 557 674 562.5 674 566.5 679.5 570 693 577 701.5 580.5 709.5 588.5 717 592 729 597.5 734.5 599.5 741 605.5 746 610 752 615.5 757.5 619.5 762 623 769.5 624.5 775.5 630 781 637 787 640 789.5 637 794 637 837"></polyline>
            <polyline id="Path-16" stroke="#FFFFFF" points="175 393.5 179.5 396.5 184.5 397.5 187.5 397 191.5 395.5 194.5 390.5 199.5 380 202.5 383 208 388.5 216.5 397 240 420 255 441 258 443 262 453 262 455.5 273 458 279 468 279 472.5 289.5 482.5 303 507 313 511 313.5 517.5 320.5 524.5 321 532 321 538.5 322.5 544 321 553 319 558 330 579 328 587 329.5 590 331.5 594.5 329.5 598 325.5 601.5 320.5 616.5 327.5 622 339 628 355.5 646 358 663 366.5 675.5 377 685.5 391 693.5 387 705 386.5 720 383.5 722.5 383.5 727.5 407.5 727.5 411 728.5 421.5 733 444 732 449 735.5 468.5 732.5 481.5 740.5 491 747.5 503.5 755 517 760.5 520.5 763 561.5 772 566.5 774.5 579.5 777.5 594.5 772.5 612.5 773 653.5 773.5 658 773 683.5 777 702.5 776 760 770.5 776 772 778 781.5 784.5 787 793 789.5 807 802 846 802 864 804.5 894 824.5 911.5 831 961.5 838 993 833 1012.5 827 1064 838 1126 834.5 1146 827 1175 820 1185 820"></polyline>
            <polyline id="Path-17" stroke="#FFFFFF" points="183 290 190 294.5 200 307.5 206.5 316.5 211.5 329 210.5 333.5 211.5 344.5 208.5 351 201.5 352.5 201.5 357.5 197.5 363 197.5 376.5 200 380"></polyline>
            <polyline id="Path-18" stroke="#FFFFFF" points="160.5 290 157 296.5 157 302.5 159 313.5 155 319 152.5 326 152.5 331 168 332.5 175 335 177 338.5 182 341.5 185 351 185 357.5 187 367 182 374.5 179 387 177 391 171.5 398.5 165.5 401 165.5 411 170 424.5 170 440 174 445 181 448.5 203 469.5 205 477.5 209.5 483 217.5 485.5 223 491.5 223 504.5 228 510 236 510 244 524 247.5 534.5 250.5 541 263 542 270 554 275 564 279 570 294.5 572.5 303 584.5 325.5 601.5 332 612.5 339 628"></polyline>
            <polyline id="Path-19" stroke="#FFFFFF" points="182 341.5 187 343 191.5 329.5 193.5 331.5 198 327 210 326 211.5 329 233 334.5 233 331.5 241 324.5 266 313.5 275 320 287.5 321 339 321 345.5 316.5 380.5 316.5"></polyline>
            <polyline id="Path-20" stroke="#FFFFFF" points="233 334.5 230.5 344 227.5 345.5 224.5 354 216 355 208.5 351 210 347.5 195 341.5 187 343 183 345.5"></polyline>
            <polyline id="Path-21" stroke="#FFFFFF" points="210.5 335 224.5 342 227.5 345.5 233 355 242 363 264 405 272 408 275.5 416 283.5 422.5 281.5 427.5 290 436 290 445.5 304.5 457.5 308.5 455.5 314.5 457.5 317 455.5 333.5 468 349 474 349 472 354.5 472 363 466 375 466 375 468 390.5 485.5 404 507.5 427 545.5 446.5 566.5 458.5 595 472.5 614.5 482 622 488 628 488 633.5 539.5 633.5"></polyline>
            <polyline id="Path-22" stroke="#FFFFFF" points="322.5 544 363.5 540.5 380.5 521 387 522.5 396 521 399 508 416 489.5 416 480.5 433 453.5 435.5 377 435.5 364 433 344.5 433 325.5 441 310 445 287 452 281.5 452 275 442.5 272 442.5 262 435.5 256 427.5 259 421.5 256 413.5 256 413.5 252 407.5 248 401 248 396 246 387 230.5 387.5 224.5 368.5 199 345 189 342.5 191.5 342.5 196.5 331.5 196.5 321 204.5 316 203 312.5 207 299 209.5 288 215.5 281.5 215.5 281.5 230.5 246 230.5 265.5 256 277 275 281.5 288.5 285 288.5 291 279.5 349 281.5 368.5 281.5 384 272 397.5 259 397.5 254.5 406.5 252 410.5 252 412 248 417 246 410.5 233.5 417 223.5 421.5 225.5 440 220.5"></polyline>
            <polyline id="Path-23" stroke="#FFFFFF" points="328.5 585 334 585 341.5 576 347 576 352 571.5 360 573.5 362 570.5 371 573.5 375 580.5 383.5 577.5 385 583.5 407.5 586.5 407.5 590.5 421 588.5 430 593.5 435 588.5 453.5 599 460.5 596 464.5 586.5 470.5 580.5 479.5 581.5 508 580.5 508 581.5 533.5 582.5 535 570.5 529.5 562 529.5 544 531.5 521.5 531.5 469.5 523 452.5 519 451 519 434.5 460.5 434.5 433 441 423 447 395.5 447 395.5 420 397 397.5 401 391.5 401 371.5 363.5 371.5 352 352.5 328.5 337.5 328.5 321.5"></polyline>
            <polyline id="Path-24" stroke="#FFFFFF" points="240 120 249 140.5 249 171 252.5 182.5 255.5 201 288.5 236.5 301 255.5 315 268.5 349 281.5 391.174703 326.977541 399 343 413.973264 351.561532 432 371 470.5 408.5 495.5 454 495.5 460 516 563.5 531 577 536.5 587 550.5 585.5 566 589.5 573 599 583 601 589 599 607.5 612 610.5 621 629 625.5 640 621 654.5 627.5 656.5 635 688.5 637.5 716 636 728.5 637.5 733 637.5 754.5 648 785.5 648 789 653.5 785.5 667.5 773 680.5 773 690 745.5 738.5 741 738.5 738.5 742.5 743 747.5 745.5 752.5 761 770 765 783 757.5 795 751 805 743 809.5 733 813 744.5 834.5 754.5 834.5 782.5 865 788 872 789 880.5 784.5 889 787 897 788 908.5 794.5 922.5 796 931 799.5 939.5 796 961 796 973 796 983.5 794.5 996 799.5 1013 805 1017 809.5 1022.5 810.5 1033 806 1044"></polyline>
            <polyline id="Path-25" stroke="#FFFFFF" points="355.5 646 364 645 367.5 641 378 641 385 641 387 641 388 639 388 633.5 400.5 628 408 630 415.5 636 420.5 636 423 636 426 638 432.5 642.5 441 647.5 451.5 652.5 457.5 654 467.5 654 474 654 475.5 658.5 477 664.5 479.5 667.5 484.5 675.5 489.5 683.5 493.5 689 495.5 692.5 492.5 696.5 492.5 700 496.5 705 501.5 707 508.5 709 507.5 713.5 511.5 715.5 505 718 503.5 722 503.5 727.5 508.5 731.5 511.5 730 531.5 733 535.5 745 548 739.5 557 736 577 734.5 581.5 736 593 729"></polyline>
            <polyline id="Path-26" stroke="#FFFFFF" points="303 584.5 309.5 580 313.5 580 313.5 572.5 323 572.5 328.5 564.5 336 566.5 349 556 352 552.5 357.5 552.5 360 540.5 363.5 540.5 373.5 528.5 382.5 527 391.5 534 416 547 497 548.5 497 530.5 488.5 505 468 470 459.5 459 459.5 431.5 455 426 455 394.5 436 366.5 448 366.5 455 370.5 492 373 517 363.5 531.5 366.5 535 370.5 539.5 370.5 539.5 358.5 546 352.5 548.5 356 550.5 354 558.5 358.5 574 356 578.5 360 587.5 358.5"></polyline>
            <polyline id="Path-27" stroke="#FFFFFF" points="535 584.5 548.5 579.5 552.5 579.5 565.5 569.5 570.5 565.5 579.5 569.5 579.5 559.5 587.5 556 597.5 548.5 606.5 539.5 611 536.5 616.5 542 635.5 533 644 529.5 644 525 654 521.5 659 529.5 662 534.5 680 544 681.5 536.5 698 536.5 708 534.5 708 539.5 715 539.5 744.5 529.5 743 521.5 750.5 505 750.5 492 747.5 481 757 468.5 752 452 735.5 426"></polyline>
            <polyline id="Path-28" stroke="#FFFFFF" points="789 653.5 800 653.5 874 665.5 896 672.5 922.5 665.5 950.5 665.5 973.5 672.5 991 665.5 1003 656.5 1034 648.5 1060.5 641 1081 637.5 1085.5 637.5 1093 633.5 1105 648.5 1114.5 660.5 1147 656.5 1160 644.5 1160 614 1163 591 1171 582 1185 582"></polyline>
            <polygon id="Path-29" stroke="#FFFFFF" points="100.5 226.5 104 230.5 104 234.5 114 248.5 120 251.5 120 257 128 263.5 137 269.5 144 275 148.5 275 153.5 282.5 160.5 290 164.5 290 170 290 173.5 288.5 178 290 183 290 181 284 175 277 176.5 271 166 250.5 164.5 246 168 243 173.5 236 166 220.5 156.5 198 148.5 187.5 136 187.5 129.5 195.5 123.5 195.5 117.5 198 112 201.5 106.5 205 106.5 209.5 106.5 214 100.5 216.5 98 220.5"></polygon>
            <polygon id="Path-30" stroke="#FFFFFF" points="115.5 199.5 119.5 199.5 119.5 204.5 124.5 204.5 129.5 208 140.5 223 145.5 228 152.5 240 159.5 249 164.5 253.5 167.5 263.5 167.5 272 161 268.5 148 266 143.5 260 138 255.5 130.5 252.5 119.5 240 112.5 234.5 109.5 234.5 106.5 228 108.5 219.5 106.5 214 106.5 205 102.5 202.5 98 202.5 92.5 190 94.5 177 97 180.5 117 184.5 119.5 190 119.5 197"></polygon>
            <polyline id="Path-31" stroke="#FFFFFF" points="114 248.5 115 243.5 125 237 139 230 144.5 227 147.5 224.5 145.5 219.5 140.5 214 137.5 207 124 200 119.5 197 119.5 185 117.5 179 119.5 173 125 169 130 164 129 158 130 149.5 125 150.5 121 153.5 106.5 147.5 101.5 147.5 91 157 90 170 94.5 177"></polyline>
            <polyline id="Path-32" stroke="#FFFFFF" points="124 169.5 135 169.5 140.5 174 149 171.5 160.5 168 187 174 189.5 177 189.5 182 193.5 187.5 201.5 195.5 201.5 201 189.5 209.5 192 218.5 188.5 219.5 182 220 181.5 229.5 173.5 236 163 235.5 160 238.5 154.5 235 147.5 224.5"></polyline>
            <polyline id="Path-33" stroke="#FFFFFF" points="167.5 265.5 172.5 263.5 176.5 271 182 268 183 271 187 271 198.5 279 198.5 276 208.5 272 222 278 220 268 224 269 228 265.5 239 263.5 240 260.5 255.5 253.5"></polyline>
            <polyline id="Path-34" stroke="#FFFFFF" points="212.5 213 220 213 226 209 242.5 208 246 204.5 247.5 193.5 244 181.5 240 178.5 232 153.5 214 155 197.5 147.5 191.5 143.5 177.5 143.5 171.5 138 146.5 134 139.5 138 144.5 156 141.5 164.5 150.5 177 148.5 187.5"></polyline>
            <polyline id="Path-35" stroke="#FFFFFF" points="156 120 146.5 134 139.5 138 125.5 137 124 134 120 131 103 132 101 134 98 132 90 138 81 134 83.5 143 88 146.5 91 157"></polyline>
            <polyline id="Path-36" stroke="#FFFFFF" points="166.5 272 164 279 163 286.5 155.5 285.5 155.5 291 151 287.5 136.5 289 136.5 296 138.5 296 140.5 312 152.5 331 149.5 335 142 334.5 133.5 328 119 308 109.5 301 105 284.5 107 276 103 254.5 94.5 245 98 230.5 98 220.5 98 202.5 91.5 190 83.5 193 73.5 182.5 72.5 173.5 42 137.5 47 133 47 122.5 35.5 94 9.5 60.5 9.5 27.5 0.5 0"></polyline>
            <polyline id="Path-37" stroke="#FFFFFF" points="281.5 228.5 333 228.5 343.5 230.5 349 223 360 228.5 360 223 363 223 366.5 220 366.5 216.5 371 220 382.5 216.5 387 211.5 375 200 380.5 198 390.5 200 394.5 198 418 200 422 203 422 206 432 208.5 440.5 206 448.5 194 454 194 457.5 196 459.5 200 474.5 200 480.5 189 496.5 189 501 177 507 177 508.5 181 516.5 178.5"></polyline>
            <polyline id="Path-38" stroke="#FFFFFF" points="195 189 221.5 189 227.5 184 240 184 252 178.5 259.5 181.5 286.5 183.5 290.5 181.5 316 181.5 324.5 177 324.5 168 328.5 165 328.5 162 335 158.5 339 160.5 343.5 158.5 349 157 349 153.5 347.5 150 359.5 143.5 359.5 134 375 120"></polyline>
            <polyline id="Path-39" stroke="#FFFFFF" points="241 421.5 252.5 420.5 252.5 410.5 256.5 407.5 261 409.5 263 411.5 264 405"></polyline>
            <polyline id="Path-40" stroke="#FFFFFF" points="279 468 282.5 461.5 289 464.5 298 463.5 300.5 461.5 300.5 459 304.5 457.5"></polyline>
            <polyline id="Path-41" stroke="#FFFFFF" points="363 466 363 460 365 457.5 370 454.5 368.5 448 370 442 375 442 395.5 420"></polyline>
            <polyline id="Path-42" stroke="#FFFFFF" points="358.5 417.5 359.5 366.5 357 354.5 358.5 351.5 364.5 351.5 376 341.5 433 340.5 439 350 440 360 445.5 352.5 452 352.5 456.5 348.5 463 348.5 469 343 470.5 337.5 467 333.5 469 324 476 321.5 476 315.5 481 321.5 496.5 313.5 495 304.5 507.5 303 506 296 512.5 290 512.5 284"></polyline>
            <polyline id="Path-43" stroke="#FFFFFF" points="328.5 622.5 331.5 628 336 629.5 334 636 339 640.5 337.5 648.5 337.5 652.5 341.5 660.5 354 668.5 354 675 347 679 344 686.5 349.5 691.5 354 696.5 352.5 701 355.5 701 355.5 707.5 361.5 711 368 714.5 368 720.5 378 720.5 383.5 722.5"></polyline>
            <polyline id="Path-44" stroke="#FFFFFF" points="474.5 654.5 478.5 654.5 487.5 644 486.5 637.5 489 633.5 494 628 485.5 621 482 613.5 494 606 500 600.5 511 601.5 523 609 539.5 609 553 609 563.5 610 571 607 575.5 607 582.5 601.5"></polyline>
            <polyline id="Path-45" stroke="#FFFFFF" points="566.5 679.5 570.5 676.5 576.5 679.5 587.5 675 648.5 675 652 664 648.5 640 646 631 653.5 623 671.5 586 671.5 568.5 676 542 680 531.5 683 528.5 681.5 504 667.5 462.5 666 445.5 659.5 434 658 398.5 653.5 387 632 350.5 632 316 622 298.5 627 295 627 291 637 286.5 640 276 648.5 276 661 263.5 661 257.5 667.5 245"></polyline>
            <polyline id="Path-46" stroke="#FFFFFF" points="693 536.5 701 549 711.5 555 714 573 711.5 582 718 600.5 731 614.5 731 631 731 654.5 731 663.5 746 691 749.5 704 749.5 715 709 715 698 719 680 715 670 715 667.5 707 660.5 704 653 704 660.5 715 650 722.5 642.5 719 634.5 719 630.5 722.5 625 730.5 609 737 609 745 617.5 745 617.5 751.5 625 756 630.5 756 640 756 642.5 763.5 645.5 763.5 650 763.5 650 760 648.5 756 657 756 666 753 670 753 674 751.5 671 748 674 742 682 742 691 739 691 742 691 745 694 746 693 749 693 751.5 693 755 689.5 757.5 691 758.5 691 765.5 688.5 767 685.5 770 685.5 786 664 786 653 787.5 650 787.5 646.5 789.5 646.5 786 642.5 782.5 640 780.5 638 777.5 636 773.5 642.5 773.5 643.5 772 645 769 645 765.5 645.5 764.5 652 769 652 772 654 776.5 650 781.5 645.5 783.5 642.5 787.5 636 791 625 792 619.5 794 613 786 611 778.5 613 769 611 757.5 607 753 594.5 755 587 757.5 583 756 573 755 563 754 559.5 757.5 564.5 760 563 765.5 561.5 771 561.5 772 564.5 777.5 561.5 783.5 557 786 558 791 564.5 798 570 795.5 574 793 582 791 589.5 791 594.5 789.5 598.5 791 605 794 610 796.5 619.5 802 622.5 805.5 623.5 811.5 625 820.5 627.5 828 633.5 832.5 638 831.5 643.5 831.5 657 830 659 832.5 670 831.5 682 843.5 691 846.5 693 849 698 856 704.5 857.5 711.5 859.5 716.5 864 719.5 869 720.5 872.5 720.5 876 728 882.5 732.5 890 740 894.5 749.5 903 753.5 909 759 916.5 764 919.5 765 923 771.5 934.5 776.5 942 779 947.5 780 953 781 957 780 963.5 783 968 786 975 789 981 791 988.5 791 993 797 993 803.5 989.5 809 988.5 809 993 809 999.5 813.5 999.5 816 1006.5 817.5 1011.5 817.5 1017 816 1024.5 812.5 1030 810.5 1032"></polyline>
            <polyline id="Path-47" stroke="#FFFFFF" points="685.5 786 697 786 705 783.5 713.5 780 719 780 724 784 731 784 742.5 783.5 751.5 784 761.5 783 765 783 771 783 777 782 791 781 797 780 800.5 775.5 806.5 775.5 809 775.5 806.5 773 806.5 768 816 763.5 822.5 763.5 829.5 763.5 835.5 763.5 840.5 760.5 833 754 828.5 754 826.5 751 821.5 746 815 748.5 810.5 748.5 809 751 804 754 798.5 754 798.5 757 794.5 757 788.5 761.5 785.5 757 779 757 767.5 758 761.5 757 766 760.5 766 763.5 767.5 768 765 775.5 759.5 777 748.5 775.5 740.5 777 732.5 778 719 777 719 791.5 711 792.5 707 791.5 701.5 791.5 697 794 694 797 688 797 680 795.5 672 794 666.5 790.5 660.5 790.5 655 794 651.5 792.5 649 824.5 655 827 659 828 662 829 663 824.5 660.5 821.5 660.5 816 647.5 818 637 818 637 809 644 809 649 810.5 656.5 810.5 662 810.5 669 813 676 818 682.5 823.5 688 828 693 833 699.5 838 703 843 707 846 712.5 852.5 719 859 719 868 723 872 727 870 732.5 872 734.5 865.5 739 860 740.5 859 745.5 859 751.5 854 751.5 849 753.5 847.5 757.5 851 757.5 844 763 840 767.5 835 771 831.5 772 827 777 827 774 818 771 810.5 766 803.5 761.5 798.5 754.5 794 745.5 794 738 791.5 732.5 791.5 725 791.5 721.5 791.5 709 794 711 797 712.5 799.5 717 801 718 803.5 719 807.5 720.5 810.5 720.5 813 719 815 712.5 816 707 817 699.5 820 695 821.5 685.5 820 680 818 660.5 816 662 813 663 804.5 666.5 797 672 803.5 676 806.5 681 805.5 684.5 805.5 689 807.5 691 807.5 691 813 691 827 695 831.5 698 831.5 697 840 697 846 700.5 842 705 837 709 830.5 711 837 711 840 713.5 840 709 844 707 849 708 854 708 859 705 862.5 705 864.5 711 872 720.5 876"></polyline>
            <polyline id="Path-48" stroke="#FFFFFF" points="726.5 860 726.5 849.5 719.5 846.5 713.5 840 715.5 833.5 709.5 827 711.5 821.5 711.5 816 704 814.5 700.5 816 696 810 691 807.5 691 803 698 797.5 699 790 696 776"></polyline>
            <polyline id="Path-49" stroke="#FFFFFF" points="670 831.5 680 833 691 831.5 697.5 829.5 697.5 820.5"></polyline>
            <polyline id="Path-50" stroke="#FFFFFF" points="649 824.5 641.5 824.5 639 820.5 631.5 819.5 626 813.5 626 804 619.5 794"></polyline>
            <polyline id="Path-51" stroke="#FFFFFF" points="663 805.5 654 797.5 651.5 792.5 653 784 665.5 784 664.5 774"></polyline>
            <polyline id="Path-52" stroke="#FFFFFF" points="677 851.5 677 845 677 835 675 829 675 818 678 812.5 678 806.5"></polyline>
            <polyline id="Path-53" stroke="#FFFFFF" points="719 815 733 813 732 789.5 734 782 734 777 744 768.5 750.5 758"></polyline>
            <polyline id="Path-54" stroke="#FFFFFF" points="691 739 696 741.5 700.5 736 709 736 713 734.5 723 739 723 736 727.5 733.5 725.5 729.5 705 716"></polyline>
            <polyline id="Path-55" stroke="#FFFFFF" points="786 869 786 860 795 849 795 833 810.5 831.5 810.5 824.5 805 820.5 803.5 815 807 802 798.5 802 795 798.5 788.5 800 764.5 802"></polyline>
            <polyline id="Path-56" stroke="#FFFFFF" points="787.5 873 801 873 808 876 815 876 834 882.5 834 892 840.5 892 848 895.5 848 898 857 902.5 850 905 848 912 848 919 850 923.5 850 934 857 934 867 932 867 934 875.5 930 880.5 923.5 892.5 923.5 906 921.5 911 919 927 923.5 941.5 919 949.5 919 958.5 921.5 964.5 923.5 973 930 977.5 934 986.5 934 992.5 938.5 1005 938.5 1008 942 1026 942 1040 942 1061.5 934 1072 930 1072 921.5 1077.5 921.5 1086.5 907.5 1086.5 902.5 1086.5 889.5 1101 882.5 1101 873 1101 857.5 1104.5 857.5 1104.5 850.5 1111 850.5 1109 836 1107 828 1120.5 828 1124 807.5 1120.5 793 1120.5 779 1124 769.5 1124 763.5 1124 753 1116 746"></polyline>
            <polyline id="Path-57" stroke="#FFFFFF" points="150.5 277 164 279 171 277 175 288.5 173 294 175 295.5 183 297.5 189.5 299.5 191.5 295.5"></polyline>
            <polyline id="Path-58" stroke="#FFFFFF" points="135.5 268.5 139.5 262.5 129 253.5 125 261 129 264 144 275 147.5 273 147.5 268.5 154 273 165.5 275 171 275 171 273 167.5 272"></polyline>
            <polyline id="Path-59" stroke="#FFFFFF" points="139.5 262.5 147.5 268.5 154 273 156.5 273 156.5 285.5"></polyline>
            <polyline id="Path-60" stroke="#FFFFFF" points="133 253.5 139.5 252.5 152.5 240 155 242.5 160 238.5 166.5 244.5"></polyline>
            <path d="M163,286.5 L161,268.5" id="Path-61" stroke="#FFFFFF"></path>
            <polyline id="Path-62" stroke="#FFFFFF" points="156.5 273 156.5 267.5 156.5 263.5 163 263.5 166.5 262.5 171 260.5"></polyline>
            <polyline id="Path-63" stroke="#FFFFFF" points="107 276 110.5 276 122 280 124 267.5 115.5 262.5 117 260.5 110.5 250.5 113 248.5"></polyline>
            <polyline id="Path-64" stroke="#FFFFFF" points="103 254.5 110.5 250.5 114 248.5"></polyline>
            <polyline id="Path-65" stroke="#FFFFFF" points="124 200 124 204.5 122 207.5 133 216.5 135.5 215.5"></polyline>
            <polyline id="Path-66" stroke="#FFFFFF" points="109.5 183 112 180 111 176 115.5 173.5 117 176 124 179 134 190 129.5 195.5 136.5 206.5"></polyline>
            <polyline id="Path-67" stroke="#FFFFFF" points="149 184 152.5 184 170 175 171 170.5 187 174.5 188 162.5 191.5 160 192 158.5 194.5 158.5 197.5 149.5 197.5 147.5 198.5 144.5 201.5 142.5 201.5 139 198.5 136 203.5 129 204 120"></polyline>
            <polyline id="Path-68" stroke="#FFFFFF" points="130 149.5 135.5 142 140.5 138.5"></polyline>
            <path d="M124,268.5 L124,260.5" id="Path-69" stroke="#FFFFFF"></path>
            <path d="M103,230 L107,228.5" id="Path-70" stroke="#FFFFFF"></path>
            <path d="M94,214.5 L98,213" id="Path-71" stroke="#FFFFFF"></path>
            <polyline id="Path-72" stroke="#FFFFFF" points="141.5 164.5 129 157 126 157 126 146 126 137 126 132.5 123 127 121 127 118.5 120"></polyline>
            <polyline id="Path-73" stroke="#FFFFFF" points="101.5 147.5 103 142 100 134 103 130 100 124.5 98 124.5 96 120"></polyline>
            <g id="Path-74" filter="url(#filter-2)">
                <use stroke="#000000" stroke-width="14" xlink:href="#path-1"></use>
                <use stroke="#FFC600" stroke-width="1" xlink:href="#path-1"></use>
            </g>
            <g id="card-2" transform="translate(689.000000, 716.000000)">
                <path d="M23.5,0 L280,0 C281.656854,-3.04359188e-16 283,1.34314575 283,3 C283,3.39607805 282.921568,3.78823564 282.769231,4.15384615 L265.269231,46.1538462 C264.803422,47.271787 263.711103,48 262.5,48 L6,48 C4.34314575,48 3,46.6568542 3,45 C3,44.6039219 3.07843152,44.2117644 3.23076923,43.8461538 L20.7307692,1.84615385 C21.1965779,0.72821303 22.2888974,1.55474356e-15 23.5,1.33226763e-15 Z" id="Rectangle" fill="#FFD33A" opacity="0.379487537" filter="url(#filter-3)"></path>
                <path d="M20.5,0 L277,0 C278.656854,-3.04359188e-16 280,1.34314575 280,3 C280,3.39607805 279.921568,3.78823564 279.769231,4.15384615 L262.269231,46.1538462 C261.803422,47.271787 260.711103,48 259.5,48 L61.2430945,48 C60.7550723,48 60.2744179,48.1190572 59.8428186,48.3468457 L25.9667586,66.2258774 C25.4783264,66.4836611 24.8733989,66.2966835 24.6156152,65.8082513 C24.5396857,65.6643848 24.5,65.5041667 24.5,65.3414926 L24.5,51 C24.5,49.3431458 23.1568542,48 21.5,48 L3,48 C1.34314575,48 1.53517375e-15,46.6568542 1.33226763e-15,45 C1.28376206e-15,44.6039219 0.0784315175,44.2117644 0.230769231,43.8461538 L17.7307692,1.84615385 C18.1965779,0.72821303 19.2888974,1.55474356e-15 20.5,1.33226763e-15 Z" id="Rectangle" fill="#FFC600"></path>
                <text id="Los-Angels" font-family="Aldrich-Regular, Aldrich" font-size="26" font-weight="normal" letter-spacing="0.219999999" fill="#000000">
                    <tspan x="78.22875" y="31">Los Angel</tspan>
                    <tspan x="206.209727" y="31">s</tspan>
                </text>
            </g>
            <g id="card-1" transform="translate(149.000000, 207.000000)">
                <path d="M23.5,0 L280,0 C281.656854,-3.04359188e-16 283,1.34314575 283,3 C283,3.39607805 282.921568,3.78823564 282.769231,4.15384615 L265.269231,46.1538462 C264.803422,47.271787 263.711103,48 262.5,48 L6,48 C4.34314575,48 3,46.6568542 3,45 C3,44.6039219 3.07843152,44.2117644 3.23076923,43.8461538 L20.7307692,1.84615385 C21.1965779,0.72821303 22.2888974,1.55474356e-15 23.5,1.33226763e-15 Z" id="Rectangle" fill="#FFD33A" opacity="0.379487537" filter="url(#filter-4)"></path>
                <path d="M20.5,0 L277,0 C278.656854,-3.04359188e-16 280,1.34314575 280,3 C280,3.39607805 279.921568,3.78823564 279.769231,4.15384615 L262.269231,46.1538462 C261.803422,47.271787 260.711103,48 259.5,48 L61.2430945,48 C60.7550723,48 60.2744179,48.1190572 59.8428186,48.3468457 L25.9667586,66.2258774 C25.4783264,66.4836611 24.8733989,66.2966835 24.6156152,65.8082513 C24.5396857,65.6643848 24.5,65.5041667 24.5,65.3414926 L24.5,51 C24.5,49.3431458 23.1568542,48 21.5,48 L3,48 C1.34314575,48 1.53517375e-15,46.6568542 1.33226763e-15,45 C1.28376206e-15,44.6039219 0.0784315175,44.2117644 0.230769231,43.8461538 L17.7307692,1.84615385 C18.1965779,0.72821303 19.2888974,1.55474356e-15 20.5,1.33226763e-15 Z" id="Rectangle" fill="#FFC600"></path>
                <text id="San-Jose" font-family="Aldrich-Regular, Aldrich" font-size="26" font-weight="normal" letter-spacing="0.219999999" fill="#000000">
                    <tspan x="88.2368359" y="31">San Jos</tspan>
                    <tspan x="195.160625" y="31">e</tspan>
                </text>
            </g>
        </g>
    </g>
</svg>